<svg width="370" height="379" viewBox="0 0 370 379" fill="none" xmlns="http://www.w3.org/2000/svg">
<path d="M297.805 189.5C297.805 260.786 244.747 318.5 179.384 318.5C114.02 318.5 60.9616 260.786 60.9616 189.5C60.9616 118.214 114.02 60.5 179.384 60.5C244.747 60.5 297.805 118.214 297.805 189.5Z" stroke="url(#paint0_linear)" stroke-linejoin="bevel"/>
<g clip-path="url(#clip0)">
<path d="M275.731 309.648V337.579C275.731 339.575 273.453 341.199 270.654 341.199H113.816C111.008 341.199 108.731 339.575 108.731 337.579V309.648C108.731 295.494 121.775 283.021 140.799 278.98L149.82 277.066C154.398 276.093 158.172 273.979 160.6 271.236C162.498 269.096 163.573 266.573 163.573 263.911V255.422L216.432 244.554V262.963C216.432 266.466 218.294 269.731 221.44 272.193C223.745 274.001 226.741 275.38 230.186 276.115L243.668 278.98C262.695 283.021 275.731 295.494 275.731 309.648Z" fill="#FFC473"/>
<path d="M243.668 278.981L230.186 276.115C226.741 275.378 223.748 274.001 221.44 272.191C218.295 269.729 216.432 266.466 216.432 262.961V244.552L163.573 255.423V261.194L197.959 254.122V272.531C197.959 276.036 199.821 279.299 202.967 281.761C205.275 283.571 208.268 284.948 211.716 285.685L225.195 288.55C244.223 292.591 257.259 305.064 257.259 319.218V341.199H270.655C273.454 341.199 275.732 339.575 275.732 337.579V309.648C275.732 295.494 262.696 283.022 243.668 278.981Z" fill="#FFC473"/>
<path d="M181.913 256.304H180.932C148.077 256.304 121.439 237.312 121.439 213.883V124.653H241.407V213.883C241.407 237.312 214.769 256.304 181.913 256.304Z" fill="#FFCC86"/>
<path d="M200.509 105.31V140.097C200.509 144.379 202.895 148.485 207.143 151.515L214.634 156.856C219.555 160.365 222.321 165.127 222.321 170.091V172.907C222.321 176.197 226.062 178.863 230.674 178.863H241.407V125.398C241.407 114.304 228.792 105.31 213.234 105.31H200.509Z" fill="#161616"/>
<path d="M126.45 142.087H177.327C190.131 142.087 200.509 134.687 200.509 125.558V105.31C192.96 95.0678 183.657 91.7126 179.459 90.5269C157.205 84.2472 102.218 120.863 101.841 121.197C101.589 121.42 101.445 121.701 101.445 122.001V124.256C101.442 134.104 112.641 142.087 126.45 142.087Z" fill="#161616"/>
<path d="M275.731 309.648V323.271H244.128V341.199H141.323V323.271H108.728V309.648C108.728 295.494 121.772 283.021 140.799 278.981L149.82 277.066C154.395 276.094 158.172 273.979 160.6 271.237C168.531 273.525 179.361 275.69 192.328 275.748C203.468 275.793 213.267 274.272 221.44 272.193C223.745 274.001 226.741 275.38 230.186 276.115L243.668 278.981C262.695 283.021 275.731 295.494 275.731 309.648Z" fill="#00B7BE"/>
<path d="M243.668 278.98L230.186 276.115C226.741 275.378 223.748 274.001 221.443 272.193C221.443 272.193 221.443 272.193 221.443 272.191C214.8 273.88 207.088 275.202 198.455 275.613C199.201 277.927 200.769 280.04 202.969 281.761C205.275 283.571 208.271 284.948 211.716 285.685L225.198 288.55C244.222 292.591 257.261 305.064 257.261 319.218V323.271H275.734V309.648C275.732 295.494 262.696 283.021 243.668 278.98Z" fill="#01989E"/>
<path d="M227.689 259.568C227.517 259.756 227.34 259.944 227.154 260.147C224.859 262.645 221.451 266.154 216.499 269.535C213.968 271.266 211.025 272.963 207.622 274.469C204.987 275.645 202.066 276.698 198.843 277.57C198.225 277.737 197.599 277.894 196.967 278.04C193.628 278.846 190.202 279.387 186.749 279.692C183.205 280.012 179.63 280.071 176.091 279.905C172.491 279.737 168.908 279.332 165.427 278.71C161.755 278.05 158.181 277.149 154.772 276.034C151.119 274.833 147.658 273.384 144.482 271.717C144.114 271.529 143.759 271.337 143.404 271.14C139.821 269.164 136.617 266.909 133.824 264.421C121.719 253.662 117.249 238.646 122.498 224.05C126.486 223.164 133.492 222.455 140.575 219.819C144.283 218.438 146.785 217.019 148.631 215.61C151.41 213.478 155.373 212.338 159.453 212.338H179.921C182.565 212.338 185.164 212.828 187.439 213.786C190.82 215.209 195.154 216.724 200.384 217.9C204.61 218.843 208.526 219.362 211.929 219.643C215.396 219.922 218.666 218.487 219.874 216.157C221.847 212.367 223.732 208.192 225.364 203.649C228.72 194.342 230.161 185.907 230.673 178.864H241.409C241.365 183.617 241.237 196.231 241.409 208.026C241.778 234.005 239.289 246.859 227.689 259.568Z" fill="#2B2B2B"/>
<path d="M241.407 178.805C241.392 177.487 241.401 176.91 241.425 176.91C241.43 176.91 241.425 177.59 241.407 178.805Z" fill="#57555C"/>
<path d="M271.106 288.25C264.594 282.021 255.631 277.556 245.192 275.341L231.715 272.473C229.277 271.954 227.09 270.976 225.383 269.636C225.378 269.63 225.372 269.624 225.364 269.62C225.095 269.409 224.84 269.187 224.599 268.962C228.113 266.063 230.56 263.384 232.151 261.641C242.374 250.441 244.665 239.413 245.965 221.024C246.478 218.675 246.736 216.274 246.736 213.881V211.867C247.097 195.579 247.107 201 247.107 193.564C247.107 183.533 246.736 157.5 246.736 175.066V131.235C246.736 131.231 246.736 131.225 246.736 131.225V125.397C246.736 112.225 231.707 101.51 213.234 101.51H203.629C197.809 94.4671 190.183 89.4659 181.42 86.9939C171.79 84.2769 148.937 92.3628 129.967 100.929C127.482 102.051 135.7 99.1562 137.274 100.929C138.848 102.703 142.141 103.229 144.626 102.106C165.167 92.829 174.038 93.0839 177.496 94.0601C184.38 96.0025 190.474 100.213 195.179 106.27V125.558C195.179 132.576 187.171 138.287 177.327 138.287H126.45C125.109 138.287 123.798 138.19 122.531 138.006C122.515 138.004 122.495 138.002 122.479 138C113.525 136.686 106.771 131.023 106.771 124.255V123.141C109.961 121.117 118.762 115.63 127.439 110.728C129.748 109.425 154.356 95.7041 152.527 94.0601C150.701 92.4141 123.127 103.468 120.821 104.772C110.947 110.35 98.4714 118.12 97.6843 118.817C96.6728 119.716 96.113 120.847 96.113 122.001V124.255C96.113 133.596 104.46 141.569 116.11 144.59V213.883C116.11 216.952 116.543 220.01 117.382 223.006C117.368 223.04 117.349 223.071 117.338 223.107C110.878 241.041 117.934 259.416 135.34 271.201C135.42 271.258 135.503 271.313 135.589 271.367C137.039 272.339 138.552 273.27 140.143 274.147C140.594 274.394 141.054 274.629 141.512 274.866L139.281 275.341C127.35 277.874 117.208 283.444 110.726 291.028C109.196 292.82 109.991 295.158 112.505 296.251C113.372 296.626 114.328 296.806 115.273 296.806C117.069 296.806 118.823 296.158 119.827 294.982C124.934 289.009 132.921 284.62 142.321 282.624L151.333 280.711C152.281 280.51 153.212 280.267 154.123 279.984C155.39 280.369 156.676 280.719 157.97 281.047C158.178 281.112 158.391 281.166 158.61 281.211C165.494 282.901 172.718 283.772 179.879 283.772C180.201 283.772 180.522 283.762 180.844 283.758C181.032 283.772 181.226 283.782 181.423 283.782C181.683 283.782 181.938 283.764 182.191 283.739C188.559 283.571 194.839 282.713 200.73 281.12C203.465 280.381 205.996 279.52 208.343 278.575C212.303 278.081 216.249 277.392 220.121 276.516C222.629 277.98 225.527 279.087 228.664 279.757L242.146 282.624C258.785 286.155 270.405 297.268 270.405 309.648V319.473H244.128C241.185 319.473 238.802 321.174 238.802 323.27V337.401H146.647V323.27C146.647 321.174 144.263 319.473 141.32 319.473H114.06V309.648C114.06 308.642 114.134 307.632 114.281 306.642C114.594 304.556 112.477 302.684 109.551 302.461C106.627 302.238 104 303.748 103.687 305.834C103.498 307.091 103.401 308.373 103.401 309.648V337.579C103.401 341.671 108.074 345.001 113.816 345.001H270.651C276.391 345.001 281.06 341.671 281.06 337.579V309.648C281.06 301.878 277.618 294.478 271.106 288.25ZM247.107 193.564L247.097 195.579C247.097 201.377 247.097 190.023 246.91 204.218C247.151 197.705 247.132 191.353 247.06 186.855C247.035 185.243 247.016 183.865 246.991 182.674C246.736 163.5 247.107 187.786 247.107 193.564ZM236.077 125.397V175.064H230.674C229.008 175.064 227.65 174.096 227.65 172.907V170.091C227.65 164.076 224.366 158.422 218.402 154.168L210.909 148.827C207.639 146.495 205.838 143.395 205.838 140.095V131.272C205.838 131.26 205.84 131.246 205.84 131.233C205.84 131.221 205.838 131.207 205.838 131.193V109.109H213.234C225.829 109.109 236.077 116.417 236.077 125.397ZM186.752 275.85V246.548C186.752 244.45 184.366 242.748 181.423 242.748C178.48 242.748 176.094 244.45 176.094 246.548V276.097C172.511 275.918 168.93 275.475 165.427 274.785V246.548C165.427 244.45 163.041 242.748 160.098 242.748C157.155 242.748 154.769 244.45 154.769 246.548V271.809C151.931 270.762 149.21 269.537 146.66 268.132C145.915 267.721 145.192 267.292 144.482 266.856V234.003C144.482 231.906 142.099 230.205 139.156 230.205C136.21 230.205 133.827 231.906 133.827 234.003V257.827C126.397 249.05 123.787 238.083 126.968 227.132C127.165 227.096 127.367 227.063 127.575 227.025C131.674 226.31 137.285 225.328 143.038 223.186C146.935 221.736 150.039 220.105 152.527 218.197C154.237 216.888 156.759 216.14 159.45 216.14H179.924C181.636 216.14 183.299 216.458 184.729 217.058C189.155 218.924 193.885 220.425 198.79 221.524C202.864 222.435 207.082 223.073 211.327 223.417C217.233 223.899 222.803 221.457 224.871 217.479C225.22 216.809 225.746 216.001 226.356 215.063C228.833 211.251 232.58 205.489 233.157 195.905C233.284 193.809 231.001 192.036 228.06 191.945C225.137 191.852 222.634 193.483 222.509 195.579C222.022 203.659 218.937 208.403 216.687 211.867C216.011 212.905 215.373 213.885 214.88 214.835C214.52 215.525 213.558 215.952 212.533 215.867C208.961 215.576 205.411 215.041 201.983 214.272C197.856 213.349 193.874 212.085 190.147 210.516C187.076 209.223 183.54 208.54 179.924 208.54H159.45C153.81 208.54 148.445 210.172 144.729 213.019C143.077 214.284 140.91 215.406 138.106 216.45C134.373 217.839 130.598 218.637 127.295 219.242C126.949 217.471 126.769 215.679 126.769 213.883V145.887H177.327C184.111 145.887 190.344 144.187 195.24 141.358C195.664 146.211 198.51 150.732 203.374 154.202L210.865 159.543C214.816 162.361 216.992 166.105 216.992 170.091V172.907C216.992 178.155 222.839 182.437 230.13 182.642C230.252 182.652 230.38 182.654 230.504 182.656C230.563 182.656 230.618 182.662 230.676 182.662H236.08V207.953C234.9 229.57 234.212 241.924 227.157 252.49V234.003C227.157 231.904 224.771 230.203 221.828 230.203C218.885 230.203 216.499 231.904 216.499 234.003V264.036C215.836 264.581 215.13 265.135 214.381 265.686C214.276 265.759 214.174 265.834 214.074 265.911C212.203 267.275 210.064 268.63 207.625 269.893V234.003C207.625 231.904 205.239 230.203 202.296 230.203C199.353 230.203 196.967 231.904 196.967 234.003V274.009C196.964 274.011 196.959 274.013 196.953 274.013C193.675 274.9 190.249 275.505 186.752 275.85ZM114.06 327.07H135.991V337.401H114.06V327.07ZM249.457 337.401V327.07H270.405V337.401H249.457Z" fill="black"/>
<path d="M152.001 187.914C152.001 190.264 149.332 192.167 146.04 192.167C142.747 192.167 140.076 190.264 140.076 187.914C140.076 185.567 142.747 183.664 146.04 183.664C149.332 183.664 152.001 185.567 152.001 187.914Z" fill="black"/>
<path d="M199.699 187.914C199.699 190.264 197.031 192.167 193.738 192.167C190.446 192.167 187.777 190.264 187.777 187.914C187.777 185.567 190.446 183.664 193.738 183.664C197.031 183.664 199.699 185.567 199.699 187.914Z" fill="black"/>
<path d="M180.539 226.407C178.527 227.308 175.232 228.397 170.953 228.45C166.115 228.517 162.462 227.195 160.702 226.405C158.211 225.289 154.922 225.822 153.353 227.598C151.787 229.375 152.536 231.72 155.027 232.839C158.322 234.317 163.67 236.052 170.612 236.052C170.787 236.052 170.964 236.052 171.142 236.05C177.879 235.963 183.058 234.256 186.217 232.839C188.706 231.72 189.454 229.373 187.886 227.598C186.317 225.822 183.028 225.289 180.539 226.407Z" fill="black"/>
</g>
<path d="M179.384 349C263.986 349 328.305 275.132 328.305 189.5C328.305 103.868 263.986 30 179.384 30C94.7809 30 30.4616 103.868 30.4616 189.5C30.4616 275.132 94.7809 349 179.384 349Z" stroke="white" stroke-width="60"/>
<defs>
<linearGradient id="paint0_linear" x1="179.384" y1="60" x2="179.384" y2="319" gradientUnits="userSpaceOnUse">
<stop/>
<stop offset="0.541667" stop-opacity="0.6"/>
<stop offset="1" stop-color="#626262" stop-opacity="0.22"/>
</linearGradient>
<clipPath id="clip0">
<rect width="363.234" height="259" fill="white" transform="translate(6.72287 86)"/>
</clipPath>
</defs>
</svg>
