<svg width="61" height="61" viewBox="0 0 61 61" fill="none" xmlns="http://www.w3.org/2000/svg">
    <g clip-path="url(#clip0)">
        <path
            d="M45.2095 26.4899L50.9545 21.3376C55.0246 17.6873 58.2578 13.322 60.5643 8.36285C60.9249 7.6016 60.0577 6.79324 59.3214 7.23081L38.5387 19.5684C37.5849 20.1345 36.7315 20.9106 36.077 21.8068L29.9875 30.1466L23.472 21.2235C22.8527 20.3753 22.0807 19.6733 21.1778 19.1374L1.97653 7.73847C1.2495 7.30663 0.374575 8.09824 0.730943 8.86476C2.23469 12.0991 4.19208 15.0959 6.54883 17.7717C7.30001 18.6245 8.61907 17.4627 7.8679 16.6099C6.29231 14.8207 4.90376 12.8809 3.72051 10.8179L20.2806 20.6488C20.9779 21.0627 21.574 21.6048 22.0523 22.26L28.8992 31.637L26.4384 35.0071C23.7618 34.7136 21.6768 34.5627 20.1436 34.552L19.1595 30.9935C18.2146 27.5767 16.3206 24.5201 13.6827 22.1543L10.8017 19.5705C9.95559 18.812 8.78208 20.1204 9.62794 20.8792L12.509 23.4629C14.8962 25.6038 16.6101 28.3699 17.4653 31.462L18.3415 34.6302C15.2099 35.0026 12.37 37.3553 11.8853 40.5482H9.28141C7.02145 40.5482 5.18278 42.3867 5.18278 44.6484C5.18278 45.1338 5.57618 45.5273 6.06168 45.5273H13.0703C13.9593 47.4506 16.7763 48.4963 18.7331 48.4963H26.5829V49.7827C26.5829 51.4058 27.9025 52.7263 29.5245 52.7263H32.2354V53.7585C32.2354 54.8948 33.9932 54.8948 33.9932 53.7585V52.7263H35.6629V53.7585C35.6629 54.8948 37.4207 54.8948 37.4207 53.7585V51.8474C37.4207 51.362 37.0273 50.9685 36.5418 50.9685C35.3452 50.9685 34.1486 50.9685 32.952 50.9685C32.2994 50.9685 31.7683 50.4366 31.7683 49.7827V48.4963H37.6274C38.7638 48.4963 38.7638 46.7385 37.6274 46.7385H18.7332C17.2695 46.7385 15.9163 46.1394 14.9409 45.0785C16.8344 43.7547 15.9721 40.6935 13.6689 40.5558C14.1064 38.4652 15.9364 36.8019 18.327 36.4068C19.2269 36.2579 29.0974 36.99 29.0974 36.99C30.3788 37.0875 31.7066 36.4485 32.4293 35.3836L39.4274 25.0714C39.8175 24.4966 40.2951 23.991 40.847 23.5689L57.12 11.1203C55.1426 14.4383 52.6852 17.4241 49.7808 20.029L44.0358 25.1812C42.9094 26.1915 42.1006 27.4968 41.6971 28.9557L39.309 37.5899C39.2165 38.168 39.4523 38.5354 40.0163 38.6919C47.3081 39.866 53.6371 41.0528 53.6981 41.0641C54.414 41.2004 54.9922 41.682 55.2738 42.3164H51.0983C48.9754 42.3164 47.4237 43.5267 46.1078 45.0565C45.1243 46.1255 43.7276 46.7385 42.2761 46.7385C41.1398 46.7385 41.1398 48.4963 42.2761 48.4963C44.2178 48.4963 46.086 47.6763 47.4015 46.2468C48.3772 45.0975 49.4808 44.0742 51.0983 44.0742H56.3386C56.8241 44.0742 57.2175 43.6807 57.2175 43.1953C57.2175 41.3119 55.8758 39.6894 54.0248 39.3369C53.9642 39.3255 48.1628 38.2378 41.2645 37.1133L43.3911 29.4243C43.705 28.29 44.3337 27.2752 45.2095 26.4899ZM30.2608 50.9684H29.5246C28.8719 50.9684 28.3408 50.4365 28.3408 49.7825V48.4962H30.0106V49.7825C30.0107 50.2044 30.1005 50.6054 30.2608 50.9684ZM14.2504 43.0385C14.2504 43.4415 13.9225 43.7695 13.5195 43.7695H7.1111C7.45903 42.9123 8.30067 42.306 9.28141 42.306H13.5195C13.9225 42.306 14.2504 42.6339 14.2504 43.0385ZM39.7791 22.1726C39.0769 22.7096 38.4692 23.353 37.9729 24.0844L30.9748 34.3965C30.4331 35.1949 29.3783 35.3555 28.4882 35.1806L30.6917 32.1629C30.6931 32.1611 30.6944 32.1592 30.6958 32.1573L37.4968 22.8434C38.0204 22.1263 38.6727 21.533 39.4359 21.0799L47.3453 16.3846L39.7791 22.1726Z"
            fill="black" />
        <path
            d="M17.881 41.0613C19.0121 41.0613 19.014 39.3035 17.881 39.3035C16.7499 39.3035 16.748 41.0613 17.881 41.0613Z"
            fill="black" />
    </g>
    <defs>
        <clipPath id="clip0">
            <rect width="60" height="60" fill="white" transform="translate(0.648804 0.859009)" />
        </clipPath>
    </defs>
</svg>