<svg width="30" height="26" viewBox="0 0 30 26" fill="none" xmlns="http://www.w3.org/2000/svg">
<path d="M21.6479 16.25C21.6479 16.6167 21.5979 16.9167 21.4979 17.15C21.3979 17.3667 21.2645 17.5417 21.0979 17.675C20.9312 17.7917 20.7395 17.875 20.5229 17.925C20.3229 17.975 20.1145 18 19.8979 18H12.0729C11.8895 18 11.7062 17.9833 11.5229 17.95C11.3395 17.9 11.1729 17.825 11.0229 17.725C10.8895 17.6083 10.7812 17.4583 10.6979 17.275C10.6145 17.075 10.5729 16.8167 10.5729 16.5V10.525H2.97285C2.73952 11.3917 2.56452 12.3167 2.44785 13.3C2.33119 14.2833 2.27285 15.35 2.27285 16.5C2.27285 17.1333 2.13119 17.5417 1.84785 17.725C1.58119 17.9083 1.26452 18 0.897852 18H0.0228516V16.5C0.0228516 14.3333 0.206185 12.425 0.572852 10.775C0.956185 9.10833 1.46452 7.66667 2.09785 6.45C2.74785 5.21667 3.49785 4.19167 4.34785 3.375C5.19785 2.55833 6.09785 1.9 7.04785 1.4C7.99785 0.9 8.96452 0.541666 9.94785 0.325C10.9479 0.108333 11.9062 -7.15256e-07 12.8229 -7.15256e-07C13.3895 -7.15256e-07 13.7562 0.141666 13.9229 0.425C14.0895 0.708332 14.1729 1.01667 14.1729 1.35V2H12.8229V16.25H21.6479ZM10.5729 2.25C9.10619 2.58333 7.76452 3.275 6.54785 4.325C5.33119 5.35833 4.34785 6.8 3.59785 8.65H10.5729V2.25ZM15.6553 10.525H12.4053C12.4053 9.85833 12.5886 9.38333 12.9553 9.1C13.3219 8.8 13.7219 8.65 14.1553 8.65H15.6553C15.6553 8 15.7053 7.33333 15.8053 6.65C15.9053 5.96667 16.0803 5.30833 16.3303 4.675C16.5803 4.04167 16.9136 3.44167 17.3303 2.875C17.7469 2.29167 18.2719 1.79167 18.9053 1.375C19.5386 0.958332 20.2886 0.624999 21.1553 0.374999C22.0219 0.124999 23.0303 -7.15256e-07 24.1803 -7.15256e-07C24.4636 -7.15256e-07 24.7219 0.0999995 24.9553 0.3C25.2053 0.483333 25.3303 0.883333 25.3303 1.5V2H24.0303C23.0636 2 22.2386 2.11667 21.5553 2.35C20.8886 2.56667 20.3303 2.86667 19.8803 3.25C19.4303 3.61667 19.0719 4.03333 18.8053 4.5C18.5386 4.96667 18.3386 5.45 18.2053 5.95C18.0719 6.43333 17.9886 6.91667 17.9553 7.4C17.9219 7.86667 17.9053 8.28333 17.9053 8.65H29.8303C29.8303 9.01667 29.7803 9.325 29.6803 9.575C29.5803 9.80833 29.4469 10 29.2803 10.15C29.1136 10.2833 28.9219 10.3833 28.7053 10.45C28.5053 10.5 28.2969 10.525 28.0803 10.525H17.9053V18C17.9053 19.4167 17.7803 20.6167 17.5303 21.6C17.2803 22.5833 16.8803 23.3833 16.3303 24C15.7969 24.6167 15.1053 25.0583 14.2553 25.325C13.4219 25.6083 12.4136 25.75 11.2303 25.75C10.6969 25.75 10.3303 25.6167 10.1303 25.35C9.93027 25.0833 9.83027 24.6417 9.83027 24.025V23.75H11.2303C11.9803 23.75 12.6303 23.6917 13.1803 23.575C13.7469 23.475 14.2053 23.225 14.5553 22.825C14.9219 22.425 15.1969 21.8417 15.3803 21.075C15.5636 20.3083 15.6553 19.2667 15.6553 17.95V10.525Z" fill="black"/>
</svg>
