        <svg
            width="70"
            height="60"
            viewBox="0 0 71 60"
            fill="none"
            xmlns="http://www.w3.org/2000/svg"
          >
            <g clip-path="url(#clip0)">
              <path
                d="M38.8289 35.342L26.5705 20.8824C25.9369 20.1349 25.1339 19.506 24.2104 19.0337L1.91708 7.63501C4.32367 12.0934 7.7549 16.0841 12.0029 19.3655L15.3479 21.9492C18.2593 24.1982 20.3613 27.1201 21.4043 30.3683L23.8014 37.8334L38.8289 35.342Z"
                fill="#7191F0"
              />
              <path
                d="M26.4937 20.9487C25.9369 20.1349 25.134 19.5061 24.2104 19.0338L1.91708 7.63501C2.50716 8.72813 3.15956 9.79278 3.86978 10.8261L20.0516 19.1C20.9753 19.5723 21.7782 20.2011 22.4118 20.9487L34.6702 35.4083L23.6113 37.2418L23.8012 37.8335L38.7517 35.4083L26.4937 20.9487Z"
                fill="#6084F0"
              />
              <path
                d="M51.9509 24.9761L58.621 19.8239C63.2189 16.2722 66.9327 11.9527 69.5376 7.1272L45.4082 19.4648C44.4084 19.976 43.5394 20.6566 42.8536 21.4657L31.3139 35.0776C26.7736 34.6352 23.0321 34.4272 21.2546 34.6803C17.88 35.1608 15.1273 37.3349 14.8915 40.2767C14.6079 43.8132 17.8515 46.758 21.8927 46.758H49.2266C51.2023 46.758 53.088 46.0452 54.4263 44.7922L55.4115 43.8699C56.4561 42.8921 57.9275 42.3358 59.4693 42.3358H65.5535C65.5535 40.8719 64.3466 39.6149 62.6786 39.3412C62.6786 39.3412 55.3435 38.1543 46.7652 36.9647L49.5377 28.3305C49.9533 27.0365 50.7909 25.8723 51.9509 24.9761Z"
                fill="#EBF9FF"
              />
              <path
                d="M46.7653 36.9649L49.5377 28.3309C49.9532 27.0367 50.7908 25.8724 51.951 24.9764L58.621 19.8241C63.219 16.2724 66.9328 11.953 69.5376 7.12744L61.5291 11.2222C59.2406 14.4117 56.4324 17.3108 53.1787 19.8241L46.5087 24.9764C45.3486 25.8725 44.5111 27.0368 44.0954 28.3309L41.5151 36.3667L46.7653 36.9649Z"
                fill="#D7EFFA"
              />
              <path
                d="M49.9693 43.8703L48.9841 44.7925C47.6455 46.0455 45.7601 46.7582 43.7844 46.7582H49.2267C51.2024 46.7582 53.088 46.0454 54.4264 44.7925L55.4116 43.8703C56.4561 42.8925 57.9276 42.3362 59.4694 42.3362H54.0271C52.4854 42.3362 51.0139 42.8925 49.9693 43.8703Z"
                fill="#D7EFFA"
              />
              <path
                d="M25.8716 35.0775L26.2191 34.6676C24.0395 34.5421 22.3045 34.5308 21.2546 34.6802C21.23 34.6837 21.2058 34.6881 21.1813 34.6919C22.593 34.7799 24.1766 34.9123 25.8716 35.0775Z"
                fill="#D7EFFA"
              />
              <path
                d="M15.8396 43.789H7.18088V43.7874C7.18088 42.0092 8.85452 40.5676 10.9191 40.5676H15.8396C16.8718 40.5676 17.7086 41.2883 17.7086 42.1774V42.1791C17.7086 43.0682 16.8718 43.789 15.8396 43.789Z"
                fill="#FFE940"
              />
              <path
                d="M36.9499 34.0307L45.0749 23.7186C45.5886 23.0666 46.2209 22.4901 46.9476 22.0114L69.5374 7.1272L45.4082 19.4648C44.4085 19.976 43.5395 20.6566 42.8536 21.4657L31.3139 35.0776L34.0035 35.2542C35.1692 35.3308 36.2935 34.8639 36.9499 34.0307Z"
                fill="#7191F0"
              />
              <path
                d="M52.6323 25.6308L59.3024 20.4785C64.0279 16.8283 67.7818 12.4629 70.4596 7.50376C70.8783 6.74251 69.8715 5.93415 69.0166 6.37173L44.8874 18.7094C43.78 19.2754 42.7892 20.0515 42.0294 20.9478L34.9593 29.2875L27.3946 20.3644C26.6756 19.5162 25.7794 18.8142 24.731 18.2783L2.43789 6.87939C1.59379 6.44755 0.577986 7.23915 0.991736 8.00568C2.73762 11.2401 5.01019 14.2368 7.74644 16.9126C8.61857 17.7654 10.15 16.6036 9.2779 15.7508C7.44861 13.9616 5.83647 12.0218 4.4627 9.95884L23.6894 19.7897C24.4989 20.2036 25.191 20.7457 25.7463 21.4009L33.6957 30.7779L30.8386 34.148C27.7311 33.8546 25.3104 33.7036 23.5303 33.693L22.3877 30.1344C21.2907 26.7176 19.0917 23.661 16.0291 21.2952L12.6841 18.7115C11.7018 17.9529 10.3393 19.2613 11.3214 20.0201L14.6663 22.6038C17.4379 24.7447 19.4278 27.5108 20.4207 30.6029L21.438 33.7711C17.8022 34.1435 14.505 36.4962 13.9422 39.6891H10.919C8.29516 39.6891 6.16042 41.5276 6.16042 43.7894C6.16042 44.2747 6.61716 44.6683 7.18085 44.6683H15.318C16.3502 46.5915 19.6207 47.6372 21.8926 47.6372H31.0064V48.9236C31.0064 50.5467 32.5385 51.8672 34.4217 51.8672H37.5691V52.8994C37.5691 54.0358 39.61 54.0358 39.61 52.8994V51.8672H41.5485V52.8994C41.5485 54.0358 43.5894 54.0358 43.5894 52.8994V50.9883C43.5894 50.5029 43.1327 50.1094 42.569 50.1094C41.1797 50.1094 39.7904 50.1094 38.4011 50.1094C37.6434 50.1094 37.0268 49.5775 37.0268 48.9236V47.6372H43.8294C45.1488 47.6372 45.1488 45.8794 43.8294 45.8794H21.8927C20.1934 45.8794 18.6223 45.2803 17.4898 44.2194C19.6882 42.8956 18.6871 39.8344 16.013 39.6967C16.5209 37.6061 18.6456 35.9428 21.4212 35.5477C22.4659 35.3988 33.9258 36.1309 33.9258 36.1309C35.4136 36.2284 36.9552 35.5894 37.7943 34.5245L45.9192 24.2124C46.3722 23.6376 46.9266 23.1319 47.5674 22.7098L66.4608 10.2612C64.165 13.5792 61.3118 16.5651 57.9398 19.1699L51.2697 24.3222C49.9619 25.3324 49.0229 26.6377 48.5544 28.0967L45.7817 36.7308C45.6743 37.3089 45.9481 37.6763 46.6029 37.8328C55.0688 39.0069 62.417 40.1937 62.4878 40.2051C63.3189 40.3414 63.9903 40.8229 64.3172 41.4573H59.4693C57.0047 41.4573 55.2031 42.6676 53.6753 44.1974C52.5334 45.2664 50.9119 45.8794 49.2267 45.8794C47.9073 45.8794 47.9073 47.6372 49.2267 47.6372C51.481 47.6372 53.65 46.8173 55.1773 45.3877C56.3101 44.2384 57.5915 43.2151 59.4693 43.2151H65.5536C66.1172 43.2151 66.574 42.8216 66.574 42.3362C66.574 40.4528 65.0161 38.8303 62.8671 38.4778C62.7968 38.4665 56.0612 37.3787 48.0521 36.2542L50.5211 28.5652C50.8856 27.4309 51.6156 26.4161 52.6323 25.6308ZM35.2766 50.1093H34.4219C33.664 50.1093 33.0474 49.5774 33.0474 48.9235V47.6371H34.9861V48.9235C34.9862 49.3453 35.0904 49.7464 35.2766 50.1093ZM16.6881 42.1794C16.6881 42.5824 16.3074 42.9105 15.8395 42.9105H8.39924C8.8032 42.0532 9.78036 41.4469 10.919 41.4469H15.8395C16.3074 41.4469 16.6881 41.7748 16.6881 42.1794ZM46.3276 21.3135C45.5123 21.8506 44.8067 22.4939 44.2305 23.2253L36.1056 33.5374C35.4766 34.3358 34.2519 34.4964 33.2186 34.3215L35.7768 31.3038C35.7785 31.302 35.78 31.3001 35.7816 31.2982L43.6777 21.9843C44.2856 21.2672 45.043 20.6739 45.929 20.2208L55.1121 15.5255L46.3276 21.3135Z"
                fill="black"
              />
              <path
                d="M20.9033 40.2021C22.2166 40.2021 22.2187 38.4443 20.9033 38.4443C19.5901 38.4443 19.5879 40.2021 20.9033 40.2021Z"
                fill="black"
              />
            </g>
            <defs>
              <clipPath id="clip0">
                <rect
                  width="70"
                  height="60"
                  fill="white"
                  transform="translate(0.896362)"
                />
              </clipPath>
            </defs>
          </svg>