<svg width="100" height="95" viewBox="0 0 100 95" fill="none" xmlns="http://www.w3.org/2000/svg">
    <path
        d="M77.5 47.5C77.5 62.387 64.7655 74.5 49 74.5C33.2345 74.5 20.5 62.387 20.5 47.5C20.5 32.613 33.2345 20.5 49 20.5C64.7655 20.5 77.5 32.613 77.5 47.5Z"
        fill="white" stroke="url(#paint0_linear)" stroke-linejoin="bevel" />
    <g clip-path="url(#clip0)">
        <path
            d="M75.6156 72.6292V78.4526C75.6156 78.8687 75.0261 79.2074 74.3018 79.2074H33.7142C32.9877 79.2074 32.3982 78.8687 32.3982 78.4526V72.6292C32.3982 69.6782 35.7738 67.0777 40.6971 66.2352L43.0315 65.836C44.2162 65.6333 45.193 65.1925 45.8212 64.6207C46.3125 64.1745 46.5908 63.6484 46.5908 63.0934V61.3235L60.2699 59.0576V62.8957C60.2699 63.6261 60.7518 64.3067 61.5658 64.8201C62.1624 65.197 62.9377 65.4846 63.8291 65.6378L67.3181 66.2352C72.2421 67.0777 75.6156 69.6782 75.6156 72.6292Z"
            fill="#FFC473" />
        <path
            d="M67.3182 66.2352L63.8292 65.6378C62.9378 65.4841 62.1632 65.197 61.5658 64.8196C60.7518 64.3063 60.2699 63.6261 60.2699 62.8952V59.0571L46.5907 61.3235V62.5269L55.4893 61.0524V64.8905C55.4893 65.6213 55.9712 66.3015 56.7852 66.8148C57.3826 67.1922 58.1571 67.4794 59.0493 67.6331L62.5376 68.2304C67.4616 69.0729 70.8352 71.6734 70.8352 74.6245V79.2074H74.3019C75.0263 79.2074 75.6158 78.8688 75.6158 78.4527V72.6292C75.6158 69.6782 72.2422 67.0777 67.3182 66.2352Z"
            fill="#FFC473" />
        <path
            d="M51.3369 61.5073H51.083C42.5804 61.5073 35.6871 57.5478 35.6871 52.6628V34.0588H66.7329V52.6628C66.7329 57.5478 59.8396 61.5073 51.3369 61.5073Z"
            fill="#FFCC86" />
        <path
            d="M56.149 30.0259V37.2789C56.149 38.1717 56.7665 39.0278 57.8659 39.6594L59.8044 40.773C61.0781 41.5047 61.7938 42.4976 61.7938 43.5325V44.1196C61.7938 44.8055 62.762 45.3613 63.9554 45.3613H66.7329V34.2141C66.7329 31.9012 63.4684 30.0259 59.4423 30.0259H56.149Z"
            fill="#161616" />
        <path
            d="M36.9837 37.6939H50.1501C53.4634 37.6939 56.1492 36.1511 56.1492 34.2477V30.026C54.1956 27.8907 51.7881 27.1912 50.7016 26.944C44.9428 25.6347 30.7128 33.2688 30.6153 33.3384C30.55 33.385 30.5128 33.4435 30.5128 33.5061V33.9762C30.512 36.0295 33.4101 37.6939 36.9837 37.6939Z"
            fill="#161616" />
        <path
            d="M75.6156 72.6292V75.4694H67.4371V79.2073H40.8327V75.4694H32.3974V72.6292C32.3974 69.6781 35.7731 67.0777 40.6971 66.2352L43.0315 65.836C44.2155 65.6333 45.193 65.1924 45.8212 64.6206C47.8737 65.0977 50.6764 65.5492 54.032 65.5612C56.915 65.5706 59.4508 65.2534 61.5657 64.82C62.1624 65.197 62.9377 65.4845 63.8291 65.6378L67.3181 66.2352C72.2421 67.0777 75.6156 69.6781 75.6156 72.6292Z"
            fill="#00B7BE" />
        <path
            d="M67.3182 66.2354L63.8292 65.638C62.9377 65.4844 62.1632 65.1972 61.5665 64.8202C61.5665 64.8202 61.5665 64.8202 61.5665 64.8198C59.8475 65.1721 57.8516 65.4477 55.6176 65.5334C55.8106 66.0158 56.2165 66.4562 56.7859 66.8151C57.3826 67.1925 58.1578 67.4796 59.0493 67.6333L62.5383 68.2307C67.4616 69.0732 70.8358 71.6736 70.8358 74.6247V75.4697H75.6164V72.6294C75.6157 69.6784 72.2422 67.0779 67.3182 66.2354Z"
            fill="#01989E" />
        <path
            d="M63.1829 62.1879C63.1385 62.227 63.0926 62.2661 63.0445 62.3086C62.4507 62.8293 61.5686 63.561 60.287 64.2659C59.6323 64.6268 58.8707 64.9807 57.99 65.2946C57.308 65.5398 56.5521 65.7594 55.718 65.9411C55.5581 65.9761 55.396 66.0086 55.2325 66.0391C54.3683 66.2072 53.4819 66.3201 52.5883 66.3835C51.6711 66.4503 50.746 66.4626 49.8301 66.428C48.8986 66.393 47.9713 66.3085 47.0705 66.1788C46.1203 66.0412 45.1951 65.8533 44.313 65.6209C43.3678 65.3705 42.4721 65.0685 41.6502 64.7208C41.5548 64.6816 41.463 64.6417 41.3713 64.6005C40.444 64.1885 39.6149 63.7184 38.892 63.1997C35.7595 60.9564 34.6027 57.8258 35.961 54.7824C36.993 54.5979 38.806 54.45 40.639 53.9004C41.5986 53.6124 42.2462 53.3166 42.7238 53.0228C43.4431 52.5783 44.4687 52.3406 45.5243 52.3406H50.8213C51.5054 52.3406 52.1781 52.4428 52.7669 52.6426C53.6418 52.9392 54.7635 53.2552 56.1168 53.5003C57.2104 53.6969 58.2238 53.8052 59.1045 53.8637C60.0016 53.9218 60.8479 53.6227 61.1605 53.137C61.6712 52.3468 62.1588 51.4763 62.5812 50.5291C63.4497 48.5887 63.8226 46.8299 63.9553 45.3616H66.7336C66.7221 46.3524 66.6891 48.9825 66.7336 51.4416C66.829 56.858 66.185 59.538 63.1829 62.1879Z"
            fill="#2B2B2B" />
        <path
            d="M66.7333 45.3494C66.7288 45.0746 66.7315 44.9543 66.7387 44.9543C66.7405 44.9543 66.7387 45.0961 66.7333 45.3494Z"
            fill="#57555C" />
        <path
            d="M74.4187 68.168C72.7333 66.8694 70.414 65.9383 67.7125 65.4765L64.225 64.8787C63.5939 64.7703 63.028 64.5664 62.5863 64.2871C62.5848 64.2858 62.5834 64.2846 62.5812 64.2838C62.5117 64.2397 62.4457 64.1936 62.3833 64.1466C63.2926 63.5422 63.9259 62.9835 64.3375 62.6202C66.9831 60.285 67.5762 57.9858 67.9126 54.1518C68.0453 53.662 68.112 53.1614 68.112 52.6625V52.2427C68.2055 48.8467 68.2081 49.9769 68.2081 48.4265C68.2081 46.3352 68.112 40.9074 68.112 44.5699V35.4312C68.112 35.4304 68.112 35.4292 68.112 35.4292V34.2142C68.112 31.4679 64.2228 29.2337 59.4422 29.2337H56.9566C55.4505 27.7654 53.4769 26.7227 51.2092 26.2073C48.7171 25.6408 42.8029 27.3267 37.894 29.1126C37.2507 29.3466 39.3776 28.743 39.7849 29.1126C40.1922 29.4826 41.0442 29.5921 41.6875 29.3581C47.0031 27.4239 49.2987 27.477 50.1937 27.6805C51.9752 28.0855 53.5522 28.9635 54.7699 30.2262V34.2476C54.7699 35.711 52.6973 36.9016 50.15 36.9016H36.9837C36.6366 36.9016 36.2974 36.8814 35.9696 36.8431C35.9653 36.8427 35.9603 36.8423 35.956 36.8419C33.6388 36.5679 31.8911 35.3871 31.8911 33.9761V33.7437C32.7166 33.3218 34.9943 32.1778 37.2397 31.1556C37.8371 30.8841 44.2055 28.0233 43.7321 27.6805C43.2595 27.3374 36.1238 29.642 35.5271 29.9139C32.9719 31.0769 29.7432 32.6969 29.5396 32.8423C29.2778 33.0298 29.1329 33.2654 29.1329 33.506V33.9761C29.1329 35.9235 31.293 37.5859 34.308 38.2158V52.6629C34.308 53.3027 34.4198 53.9405 34.6371 54.565C34.6335 54.572 34.6285 54.5786 34.6257 54.5861C32.954 58.3252 34.7798 62.1563 39.2843 64.6134C39.3051 64.6253 39.3266 64.6368 39.3489 64.648C39.7239 64.8507 40.1155 65.0447 40.5272 65.2276C40.6441 65.2791 40.7631 65.3282 40.8814 65.3776L40.3041 65.4765C37.2167 66.0046 34.5919 67.166 32.9145 68.7472C32.5186 69.1209 32.7245 69.6083 33.3749 69.8361C33.5994 69.9144 33.8468 69.9519 34.0914 69.9519C34.5561 69.9519 35.0101 69.8167 35.2697 69.5716C36.5914 68.3262 38.6582 67.4112 41.0908 66.995L43.423 66.5962C43.6683 66.5542 43.9093 66.5036 44.1452 66.4446C44.473 66.525 44.8057 66.5979 45.1406 66.6663C45.1944 66.6799 45.2496 66.691 45.3063 66.7005C47.0877 67.0527 48.9574 67.2344 50.8105 67.2344C50.8937 67.2344 50.9769 67.2323 51.0601 67.2315C51.1088 67.2344 51.159 67.2365 51.21 67.2365C51.2774 67.2365 51.3433 67.2328 51.4086 67.2274C53.0566 67.1924 54.6817 67.0136 56.2064 66.6815C56.9142 66.5274 57.569 66.3478 58.1764 66.1509C59.2013 66.0479 60.2225 65.9041 61.2244 65.7216C61.8734 66.0269 62.6235 66.2576 63.4354 66.3973L66.9243 66.995C71.2302 67.7313 74.2372 70.0483 74.2372 72.6294V74.6777H67.4371C66.6755 74.6777 66.0587 75.0325 66.0587 75.4696V78.4157H42.2103V75.4696C42.2103 75.0325 41.5936 74.6777 40.8319 74.6777H33.7773V72.6294C33.7773 72.4197 33.7966 72.2091 33.8346 72.0027C33.9157 71.5677 33.3678 71.1775 32.6104 71.131C31.8538 71.0844 31.174 71.3992 31.0929 71.8342C31.0442 72.0962 31.0191 72.3636 31.0191 72.6294V78.4528C31.0191 79.306 32.2282 80.0002 33.7141 80.0002H74.301C75.7863 80.0002 76.9947 79.306 76.9947 78.4528V72.6294C76.9947 71.0094 76.104 69.4665 74.4187 68.168ZM68.2081 48.4265L68.2055 48.8467C68.2055 50.0555 68.2055 47.6882 68.1571 50.6479C68.2195 49.29 68.2145 47.9655 68.1959 47.0278C68.1894 46.6916 68.1844 46.4044 68.1779 46.156C68.112 42.1584 68.2081 47.2218 68.2081 48.4265ZM65.3538 34.2142V44.5695H63.9553C63.5243 44.5695 63.1729 44.3676 63.1729 44.1196V43.5325C63.1729 42.2784 62.3231 41.0997 60.7797 40.2127L58.8405 39.0991C57.9943 38.613 57.5281 37.9666 57.5281 37.2786V35.439C57.5281 35.4366 57.5288 35.4337 57.5288 35.4308C57.5288 35.4283 57.5281 35.4254 57.5281 35.4226V30.8182H59.4422C62.7017 30.8182 65.3538 32.3417 65.3538 34.2142ZM52.5891 65.5828V59.4734C52.5891 59.0359 51.9716 58.6812 51.21 58.6812C50.4483 58.6812 49.8309 59.0359 49.8309 59.4734V65.6343C48.9036 65.5968 47.977 65.5045 47.0705 65.3607V59.4734C47.0705 59.0359 46.453 58.6812 45.6914 58.6812C44.9298 58.6812 44.3123 59.0359 44.3123 59.4734V64.7402C43.578 64.5219 42.8737 64.2665 42.2139 63.9735C42.021 63.8879 41.8338 63.7985 41.6502 63.7074V56.8577C41.6502 56.4206 41.0335 56.0659 40.2718 56.0659C39.5095 56.0659 38.8928 56.4206 38.8928 56.8577V61.825C36.97 59.995 36.2945 57.7085 37.1178 55.4253C37.1687 55.4179 37.2211 55.4109 37.2748 55.403C38.3355 55.2539 39.7878 55.0491 41.2766 54.6025C42.2849 54.3001 43.0881 53.9603 43.7321 53.5623C44.1746 53.2895 44.8272 53.1334 45.5236 53.1334H50.822C51.2652 53.1334 51.6955 53.1997 52.0655 53.325C53.2108 53.7139 54.435 54.027 55.7044 54.2561C56.7586 54.446 57.8501 54.5791 58.9488 54.6507C60.4771 54.7513 61.9186 54.242 62.4536 53.4127C62.5439 53.2731 62.6802 53.1046 62.838 52.9089C63.4791 52.1141 64.4487 50.9128 64.5979 48.9147C64.6309 48.4776 64.0399 48.108 63.279 48.089C62.5224 48.0697 61.8748 48.4096 61.8426 48.8467C61.7163 50.5313 60.9181 51.5205 60.3358 52.2427C60.1608 52.459 59.9959 52.6633 59.8682 52.8615C59.775 53.0053 59.5261 53.0943 59.2608 53.0765C58.3364 53.016 57.4177 52.9043 56.5306 52.7441C55.4627 52.5517 54.4321 52.288 53.4676 51.9609C52.673 51.6914 51.7579 51.5489 50.822 51.5489H45.5236C44.0642 51.5489 42.6758 51.8892 41.7141 52.4829C41.2866 52.7465 40.7258 52.9805 40 53.1981C39.034 53.4877 38.0573 53.6541 37.2024 53.7802C37.1128 53.4111 37.0661 53.0374 37.0661 52.6629V38.4861H50.15C51.9056 38.4861 53.5185 38.1318 54.7857 37.5418C54.8954 38.5536 55.632 39.4963 56.8906 40.2197L58.8291 41.3333C59.8517 41.9208 60.4147 42.7015 60.4147 43.5325V44.1196C60.4147 45.2138 61.9279 46.1066 63.8147 46.1494C63.8463 46.1515 63.8793 46.1519 63.9116 46.1523C63.9266 46.1523 63.941 46.1535 63.956 46.1535H65.3545V51.4265C65.049 55.9337 64.8711 58.5094 63.0452 60.7123V56.8577C63.0452 56.4202 62.4278 56.0655 61.6661 56.0655C60.9045 56.0655 60.287 56.4202 60.287 56.8577V63.1195C60.1156 63.2332 59.9328 63.3486 59.7391 63.4635C59.7119 63.4788 59.6853 63.4944 59.6595 63.5105C59.1754 63.7948 58.6218 64.0774 57.9907 64.3406V56.8577C57.9907 56.4202 57.3732 56.0655 56.6116 56.0655C55.85 56.0655 55.2325 56.4202 55.2325 56.8577V65.1988C55.2318 65.1992 55.2303 65.1996 55.2289 65.1996C54.3805 65.3846 53.4941 65.5107 52.5891 65.5828ZM33.7773 76.2618H39.4529V78.4157H33.7773V76.2618ZM68.8162 78.4157V76.2618H74.2372V78.4157H68.8162Z"
            fill="black" />
        <path
            d="M43.5959 47.2485C43.5959 47.7383 42.9053 48.1351 42.0533 48.1351C41.2013 48.1351 40.5099 47.7383 40.5099 47.2485C40.5099 46.759 41.2013 46.3623 42.0533 46.3623C42.9053 46.3623 43.5959 46.759 43.5959 47.2485Z"
            fill="black" />
        <path
            d="M55.9396 47.2485C55.9396 47.7383 55.249 48.1351 54.397 48.1351C53.545 48.1351 52.8544 47.7383 52.8544 47.2485C52.8544 46.759 53.545 46.3623 54.397 46.3623C55.249 46.3623 55.9396 46.759 55.9396 47.2485Z"
            fill="black" />
        <path
            d="M50.9812 55.2739C50.4606 55.4618 49.6079 55.6888 48.5006 55.6999C47.2484 55.7139 46.3032 55.4383 45.8478 55.2735C45.203 55.0407 44.3518 55.152 43.9459 55.5223C43.5407 55.8927 43.7343 56.3817 44.379 56.6149C45.2317 56.9231 46.6159 57.2848 48.4124 57.2848C48.4575 57.2848 48.5034 57.2848 48.5493 57.2844C50.2928 57.2663 51.6331 56.9103 52.4507 56.6149C53.0947 56.3817 53.2884 55.8923 52.8824 55.5223C52.4765 55.152 51.6253 55.0407 50.9812 55.2739Z"
            fill="black" />
    </g>
    <path
        d="M49 85C70.032 85 88 68.7045 88 47.5C88 26.2955 70.032 10 49 10C27.968 10 10 26.2955 10 47.5C10 68.7045 27.968 85 49 85Z"
        stroke="#2A898D" stroke-width="20" stroke-linejoin="bevel" />
    <defs>
        <linearGradient id="paint0_linear" x1="49" y1="20" x2="49" y2="75" gradientUnits="userSpaceOnUse">
            <stop />
            <stop offset="0.541667" stop-opacity="0.6" />
            <stop offset="1" stop-color="#626262" stop-opacity="0.22" />
        </linearGradient>
        <clipPath id="clip0">
            <rect width="94" height="54" fill="white" transform="translate(6 26)" />
        </clipPath>
    </defs>
</svg>