<svg id="Capa_1" enable-background="new 0 0 512 512" height="512" viewBox="0 0 512 512" width="512" xmlns="http://www.w3.org/2000/svg"><g><path d="m376 331c-8.291 0-15-6.709-15-15v-210c0-8.291 6.709-15 15-15s15 6.709 15 15v210c0 8.291-6.709 15-15 15z" fill="#403939"/><path d="m76 331c-8.291 0-15-6.709-15-15v-210c0-8.291 6.709-15 15-15s15 6.709 15 15v210c0 8.291-6.709 15-15 15z" fill="#595353"/><path d="m15 121c-5.186 0-10.005 2.695-12.744 7.104s-2.988 9.932-.688 14.59c.146.264 13.432 27.349 13.432 53.306s-13.286 53.042-13.433 53.306c-2.3 4.658-2.051 10.181.688 14.59s7.559 7.104 12.745 7.104h131.825v-150z" fill="#bfd6ff"/><path d="m464.418 129.291c-2.549-5.083-7.734-8.291-13.418-8.291h-139.175v150h139.175c5.684 0 10.869-3.208 13.418-8.291.674-1.362 16.582-33.545 16.582-66.709s-15.908-65.347-16.582-66.709z" fill="#ecf2ff"/><path d="m241 15v361c0 8.401-6.599 15-15 15s-15-6.599-15-15v-361c0-8.401 6.599-15 15-15s15 6.599 15 15z" fill="#595353"/><path d="m241 15v361c0 8.401-6.599 15-15 15v-391c8.401 0 15 6.599 15 15z" fill="#403939"/><path d="m331 226c0 33.3-15.901 65.4-16.5 66.599-2.7 5.101-7.8 8.401-13.5 8.401h-165c-5.099 0-9.901-2.701-12.599-7.2-3.001-4.2-3.001-9.901-.901-14.399.3-.3 13.5-27.301 13.5-53.401s-13.2-53.101-13.5-53.401c0-.298-1.199-5.999-1.199-6.599l90-30 14.7 4.2 91.5 25.8c4.8 11.4 13.499 35.4 13.499 60z" fill="#ecf2ff"/><path d="m331 226c0 33.3-15.901 65.4-16.5 66.599-2.7 5.101-7.8 8.401-13.5 8.401h-75v-160.8l91.5 25.8c4.801 11.4 13.5 35.4 13.5 60z" fill="#d9e5ff"/><path d="m331 106c0 24.6-8.699 48.6-13.5 60h-196.2c0-.601 1.199-6.301 1.199-6.599.3-.3 13.5-27.301 13.5-53.401s-13.2-53.101-13.5-53.401c-2.1-4.499-2.1-10.199.901-14.399 2.699-4.499 7.5-7.2 12.599-7.2h165c5.7 0 10.8 3.3 13.5 8.401.6 1.199 16.501 33.299 16.501 66.599z" fill="#d9e5ff"/><path d="m317.5 166h-91.5v-135h75c5.7 0 10.8 3.3 13.5 8.401.599 1.199 16.5 33.299 16.5 66.599 0 24.6-8.699 48.6-13.5 60z" fill="#bfd6ff"/><path d="m497 301h-132.4c-17.1 0-32.699 9.6-40.199 24.901l-13.5 26.699c-2.701 5.1-7.801 8.4-13.501 8.4h-142.8c-5.7 0-10.8-3.3-13.5-8.401l-13.5-26.699c-7.501-15.3-23.1-24.9-40.2-24.9h-72.4c-8.401 0-15 6.599-15 15v60c0 8.401 6.599 15 15 15h19.3l27.301 109.6c1.5 6.601 7.5 11.4 14.399 11.4h300c6.599 0 12.299-4.2 14.099-10.201l50.7-152.5c3.602-11.099 13.801-18.299 25.201-18.299h31c8.401 0 15-6.599 15-15s-6.599-15-15-15z" fill="#b37059"/><path d="m512 316c0 8.401-6.599 15-15 15h-31c-11.4 0-21.599 7.2-25.201 18.3l-50.7 152.5c-1.8 6-7.5 10.201-14.099 10.201h-150v-151.001h71.4c5.7 0 10.8-3.3 13.5-8.401l13.5-26.699c7.501-15.3 23.1-24.9 40.2-24.9h132.4c8.401 0 15 6.599 15 15z" fill="#995a4d"/><circle cx="316" cy="436" fill="#403939" r="15"/><circle cx="256" cy="436" fill="#403939" r="15"/><g fill="#595353"><circle cx="196" cy="436" r="15"/><circle cx="136" cy="436" r="15"/></g></g></svg>